<svg width="22" height="21" viewBox="0 0 22 21" fill="none" xmlns="http://www.w3.org/2000/svg">
<path d="M5.43336 12.0559L11.9667 18.5892C12.2334 18.8559 12.3611 19.167 12.35 19.5226C12.3389 19.8781 12.2 20.1892 11.9334 20.4559C11.6667 20.7003 11.3556 20.8281 11 20.8392C10.6445 20.8503 10.3334 20.7226 10.0667 20.4559L1.26669 11.6559C1.13336 11.5226 1.03891 11.3781 0.983358 11.2226C0.927802 11.067 0.900024 10.9003 0.900024 10.7226C0.900024 10.5448 0.927802 10.3781 0.983358 10.2226C1.03891 10.067 1.13336 9.92256 1.26669 9.78922L10.0667 0.989225C10.3111 0.744781 10.6167 0.622559 10.9834 0.622559C11.35 0.622559 11.6667 0.744781 11.9334 0.989225C12.2 1.25589 12.3334 1.57256 12.3334 1.93923C12.3334 2.30589 12.2 2.62256 11.9334 2.88923L5.43336 9.38923H20.3334C20.7111 9.38923 21.0278 9.517 21.2834 9.77256C21.5389 10.0281 21.6667 10.3448 21.6667 10.7226C21.6667 11.1003 21.5389 11.417 21.2834 11.6726C21.0278 11.9281 20.7111 12.0559 20.3334 12.0559H5.43336Z" fill="#70E61C"/>
</svg>
