<svg width="22" height="21" viewBox="0 0 22 21" fill="none" xmlns="http://www.w3.org/2000/svg">
<path d="M16.5667 12.0561H1.66671C1.28893 12.0561 0.972263 11.9284 0.716707 11.6728C0.461152 11.4172 0.333374 11.1006 0.333374 10.7228C0.333374 10.345 0.461152 10.0284 0.716707 9.7728C0.972263 9.51725 1.28893 9.38947 1.66671 9.38947H16.5667L10.0334 2.85614C9.76671 2.58947 9.63893 2.27836 9.65004 1.9228C9.66115 1.56725 9.80004 1.25614 10.0667 0.989469C10.3334 0.745024 10.6445 0.617247 11 0.606135C11.3556 0.595024 11.6667 0.722802 11.9334 0.989469L20.7334 9.78947C20.8667 9.9228 20.9612 10.0672 21.0167 10.2228C21.0723 10.3784 21.1 10.545 21.1 10.7228C21.1 10.9006 21.0723 11.0672 21.0167 11.2228C20.9612 11.3784 20.8667 11.5228 20.7334 11.6561L11.9334 20.4561C11.6889 20.7006 11.3834 20.8228 11.0167 20.8228C10.65 20.8228 10.3334 20.7006 10.0667 20.4561C9.80004 20.1895 9.66671 19.8728 9.66671 19.5061C9.66671 19.1395 9.80004 18.8228 10.0667 18.5561L16.5667 12.0561Z" fill="#70E61C"/>
</svg>
